<?xml version="1.0" standalone="no"?><!DOCTYPE svg PUBLIC "-//W3C//DTD SVG 1.1//EN" "http://www.w3.org/Graphics/SVG/1.1/DTD/svg11.dtd"><svg t="1756449988444" class="icon" viewBox="0 0 1024 1024" version="1.1" xmlns="http://www.w3.org/2000/svg" p-id="13061" xmlns:xlink="http://www.w3.org/1999/xlink" width="200" height="200"><path d="M512 152.234667a355.754667 355.754667 0 0 1 253.098667 104.96 356.778667 356.778667 0 0 1 104.96 253.013333 355.754667 355.754667 0 0 1-104.96 252.928 356.778667 356.778667 0 0 1-253.013334 104.96 355.754667 355.754667 0 0 1-253.098666-104.96 356.778667 356.778667 0 0 1-104.874667-253.013333 355.754667 355.754667 0 0 1 104.96-253.098667A356.778667 356.778667 0 0 1 512 152.234667m0-88.746667a446.72 446.72 0 1 0 0 893.354667 446.72 446.72 0 0 0 0-893.44z" p-id="13062" fill="#e6e6e6"></path><path d="M512 0a43.264 43.264 0 0 0-43.093333 43.178667V261.973333a43.264 43.264 0 0 0 86.357333 0V43.178667A43.264 43.264 0 0 0 512 0z m0 718.848a43.264 43.264 0 0 0-43.093333 43.178667v218.794666a43.264 43.264 0 0 0 86.357333 0V762.026667A43.264 43.264 0 0 0 512 718.848z m-249.941333-250.026667H43.178667a43.264 43.264 0 0 0 0 86.442667H261.973333a43.264 43.264 0 0 0 0.085334-86.357333z m250.026666-3.242666a44.373333 44.373333 0 1 0 0 88.746666 44.373333 44.373333 0 0 0 0-88.746666z m468.821334 3.328H762.026667a43.264 43.264 0 0 0 0 86.357333h218.794666a43.264 43.264 0 0 0 0.085334-86.357333z" p-id="13063" fill="#e6e6e6"></path></svg>