<svg xmlns="http://www.w3.org/2000/svg" viewBox="0 0 1920 65" fill="none" preserveAspectRatio="none" aria-hidden="true">
  <defs>
    <linearGradient id="screenFooterDeck" x1="960" y1="18" x2="960" y2="65" gradientUnits="userSpaceOnUse">
      <stop offset="0" stop-color="currentColor" stop-opacity="0.36" />
      <stop offset="0.48" stop-color="currentColor" stop-opacity="0.15" />
      <stop offset="1" stop-color="currentColor" stop-opacity="0" />
    </linearGradient>
    <linearGradient id="screenFooterBeam" x1="568" y1="43" x2="1352" y2="43" gradientUnits="userSpaceOnUse">
      <stop offset="0" stop-color="currentColor" stop-opacity="0" />
      <stop offset="0.18" stop-color="currentColor" stop-opacity="0.48" />
      <stop offset="0.5" stop-color="currentColor" />
      <stop offset="0.82" stop-color="currentColor" stop-opacity="0.48" />
      <stop offset="1" stop-color="currentColor" stop-opacity="0" />
    </linearGradient>
    <radialGradient id="screenFooterPulse" cx="0" cy="0" r="1" gradientUnits="userSpaceOnUse" gradientTransform="translate(960 48) rotate(90) scale(32 210)">
      <stop offset="0" stop-color="currentColor" stop-opacity="0.42" />
      <stop offset="0.54" stop-color="currentColor" stop-opacity="0.12" />
      <stop offset="1" stop-color="currentColor" stop-opacity="0" />
    </radialGradient>
    <filter id="screenFooterGlow" x="520" y="0" width="880" height="86" color-interpolation-filters="sRGB">
      <feGaussianBlur stdDeviation="4" result="blur" />
      <feMerge>
        <feMergeNode in="blur" />
        <feMergeNode in="SourceGraphic" />
      </feMerge>
    </filter>
  </defs>

  <path d="M568 65L616 42L802 35L852 48H1068L1118 35L1304 42L1352 65H568Z" fill="url(#screenFooterDeck)" />
  <path d="M724 44H835L866 55H1054L1085 44H1196" stroke="url(#screenFooterBeam)" stroke-width="3" stroke-linecap="round" filter="url(#screenFooterGlow)" />
  <path d="M568 65L616 42L802 35L852 48H1068L1118 35L1304 42L1352 65" stroke="url(#screenFooterBeam)" stroke-width="2" stroke-linecap="round" filter="url(#screenFooterGlow)" />
  <path d="M812 52H1108L1160 65H760L812 52Z" fill="url(#screenFooterPulse)" />
  <path d="M898 50H1022" stroke="currentColor" stroke-width="3" stroke-linecap="round" stroke-opacity="0.82" filter="url(#screenFooterGlow)" />
  <path d="M924 42H996" stroke="currentColor" stroke-width="1.8" stroke-linecap="round" stroke-opacity="0.52" />
  <path d="M750 50H775L788 58H763L750 50ZM797 50H822L835 58H810L797 50ZM844 50H869L882 58H857L844 50Z" fill="currentColor" fill-opacity="0.52" />
  <path d="M1038 58L1051 50H1076L1063 58H1038ZM1085 58L1098 50H1123L1110 58H1085ZM1132 58L1145 50H1170L1157 58H1132Z" fill="currentColor" fill-opacity="0.52" />
</svg>
