<svg xmlns="http://www.w3.org/2000/svg" viewBox="0 0 1920 113" fill="none" preserveAspectRatio="xMidYMid slice" aria-hidden="true">
  <defs>
    <linearGradient id="topLine" x1="0" y1="0" x2="1920" y2="0" gradientUnits="userSpaceOnUse">
      <stop offset="0" stop-color="currentColor" stop-opacity="0" />
      <stop offset="0.18" stop-color="currentColor" stop-opacity="0.48" />
      <stop offset="0.5" stop-color="currentColor" />
      <stop offset="0.82" stop-color="currentColor" stop-opacity="0.48" />
      <stop offset="1" stop-color="currentColor" stop-opacity="0" />
    </linearGradient>
    <linearGradient id="centerPanel" x1="960" y1="1" x2="960" y2="88" gradientUnits="userSpaceOnUse">
      <stop offset="0" stop-color="currentColor" stop-opacity="0.5" />
      <stop offset="0.45" stop-color="currentColor" stop-opacity="0.24" />
      <stop offset="1" stop-color="currentColor" stop-opacity="0.04" />
    </linearGradient>
    <linearGradient id="wingPanel" x1="960" y1="16" x2="960" y2="91" gradientUnits="userSpaceOnUse">
      <stop offset="0" stop-color="currentColor" stop-opacity="0.36" />
      <stop offset="0.55" stop-color="currentColor" stop-opacity="0.17" />
      <stop offset="1" stop-color="currentColor" stop-opacity="0.02" />
    </linearGradient>
    <linearGradient id="bottomLine" x1="430" y1="78" x2="1490" y2="78" gradientUnits="userSpaceOnUse">
      <stop offset="0" stop-color="currentColor" stop-opacity="0" />
      <stop offset="0.18" stop-color="currentColor" stop-opacity="0.72" />
      <stop offset="0.5" stop-color="currentColor" />
      <stop offset="0.82" stop-color="currentColor" stop-opacity="0.72" />
      <stop offset="1" stop-color="currentColor" stop-opacity="0" />
    </linearGradient>
    <radialGradient id="titleGlow" cx="0" cy="0" r="1" gradientUnits="userSpaceOnUse" gradientTransform="translate(960 21) rotate(90) scale(72 360)">
      <stop offset="0" stop-color="currentColor" stop-opacity="0.38" />
      <stop offset="0.5" stop-color="currentColor" stop-opacity="0.14" />
      <stop offset="1" stop-color="currentColor" stop-opacity="0" />
    </radialGradient>
    <filter id="glow" x="-40" y="-24" width="2000" height="150" color-interpolation-filters="sRGB">
      <feGaussianBlur stdDeviation="5" result="blur" />
      <feMerge>
        <feMergeNode in="blur" />
        <feMergeNode in="SourceGraphic" />
      </feMerge>
    </filter>
    <filter id="smallGlow" x="-20" y="-20" width="1960" height="140" color-interpolation-filters="sRGB">
      <feGaussianBlur stdDeviation="2.2" result="blur" />
      <feMerge>
        <feMergeNode in="blur" />
        <feMergeNode in="SourceGraphic" />
      </feMerge>
    </filter>
    <linearGradient id="particleTail" x1="-34" y1="0" x2="6" y2="0" gradientUnits="userSpaceOnUse">
      <stop offset="0" stop-color="currentColor" stop-opacity="0" />
      <stop offset="0.55" stop-color="currentColor" stop-opacity="0.38" />
      <stop offset="1" stop-color="currentColor" stop-opacity="0.95" />
    </linearGradient>
  </defs>

  <path class="header-top-line" d="M0 3H715C735 3 735 18 755 18M1165 18C1185 18 1185 3 1205 3H1920" stroke="url(#topLine)" stroke-width="2" filter="url(#glow)" />
  <path class="header-center-panel" d="M755 18L805 33H1115L1165 18C1185 18 1185 3 1205 3H1920V0H0V3H715C735 3 735 18 755 18Z" fill="url(#centerPanel)" />
  <path class="header-title-glow" d="M690 16L805 44H1115L1230 16H1165L1115 31H805L755 16H690Z" fill="url(#titleGlow)" />

  <path class="header-wing-panel" d="M420 18L560 53L960 84L1360 53L1500 18H1230L1160 44H760L690 18H420Z" fill="url(#wingPanel)" />
  <path class="header-main-line" d="M560 53L960 84L1360 53" stroke="url(#bottomLine)" stroke-width="4" stroke-linecap="round" filter="url(#glow)" />
  <path class="header-title-lines" d="M760 44H880M1040 44H1160" stroke="currentColor" stroke-width="2.5" stroke-opacity="0.86" stroke-linecap="round" filter="url(#smallGlow)" />
  <path class="header-frame-lines" d="M706 23L760 44M1214 23L1160 44" stroke="currentColor" stroke-width="2.5" stroke-opacity="0.62" stroke-linecap="round" />
  <path class="header-frame-lines" d="M560 53L690 18M1360 53L1230 18" stroke="currentColor" stroke-width="2" stroke-opacity="0.5" stroke-linecap="round" />

  <path class="header-side-blocks" d="M382 20H398L415 31H399L382 20ZM416 20H432L449 31H433L416 20ZM450 20H466L483 31H467L450 20ZM484 20H500L517 31H501L484 20ZM518 20H534L551 31H535L518 20ZM552 20H568L585 31H569L552 20Z" fill="currentColor" fill-opacity="0.78" filter="url(#smallGlow)" />
  <path class="header-side-blocks" d="M1335 31L1352 20H1368L1351 31H1335ZM1369 31L1386 20H1402L1385 31H1369ZM1403 31L1420 20H1436L1419 31H1403ZM1437 31L1454 20H1470L1453 31H1437ZM1471 31L1488 20H1504L1487 31H1471ZM1505 31L1522 20H1538L1521 31H1505Z" fill="currentColor" fill-opacity="0.78" filter="url(#smallGlow)" />

  <path class="header-arrows" d="M722 32L716 38L722 44M735 32L729 38L735 44M1198 32L1204 38L1198 44M1185 32L1191 38L1185 44" stroke="currentColor" stroke-width="3" stroke-linecap="round" stroke-linejoin="round" stroke-opacity="0.82" />
  <path class="header-dash-lines" d="M625 58H690M1230 58H1295" stroke="currentColor" stroke-width="3.5" stroke-linecap="round" stroke-dasharray="14 12" stroke-opacity="0.52" />
  <path class="header-sub-lines" d="M835 73H915M1005 73H1085" stroke="currentColor" stroke-width="2" stroke-linecap="round" stroke-opacity="0.42" />
</svg>
