<svg xmlns="http://www.w3.org/2000/svg" viewBox="0 0 1920 113" fill="none" preserveAspectRatio="xMidYMid slice" aria-hidden="true">
  <defs>
    <linearGradient id="screenHeaderRail" x1="170" y1="8" x2="1750" y2="8" gradientUnits="userSpaceOnUse">
      <stop offset="0" stop-color="currentColor" stop-opacity="0" />
      <stop offset="0.12" stop-color="currentColor" stop-opacity="0.34" />
      <stop offset="0.34" stop-color="currentColor" stop-opacity="0.88" />
      <stop offset="0.5" stop-color="currentColor" />
      <stop offset="0.66" stop-color="currentColor" stop-opacity="0.88" />
      <stop offset="0.88" stop-color="currentColor" stop-opacity="0.34" />
      <stop offset="1" stop-color="currentColor" stop-opacity="0" />
    </linearGradient>
    <linearGradient id="screenHeaderPlate" x1="960" y1="7" x2="960" y2="88" gradientUnits="userSpaceOnUse">
      <stop offset="0" stop-color="currentColor" stop-opacity="0.5" />
      <stop offset="0.42" stop-color="currentColor" stop-opacity="0.19" />
      <stop offset="1" stop-color="currentColor" stop-opacity="0" />
    </linearGradient>
    <linearGradient id="screenHeaderWing" x1="960" y1="24" x2="960" y2="105" gradientUnits="userSpaceOnUse">
      <stop offset="0" stop-color="currentColor" stop-opacity="0.28" />
      <stop offset="0.56" stop-color="currentColor" stop-opacity="0.11" />
      <stop offset="1" stop-color="currentColor" stop-opacity="0" />
    </linearGradient>
    <linearGradient id="screenHeaderScan" x1="527" y1="71" x2="1393" y2="71" gradientUnits="userSpaceOnUse">
      <stop offset="0" stop-color="currentColor" stop-opacity="0" />
      <stop offset="0.2" stop-color="currentColor" stop-opacity="0.55" />
      <stop offset="0.5" stop-color="currentColor" />
      <stop offset="0.8" stop-color="currentColor" stop-opacity="0.55" />
      <stop offset="1" stop-color="currentColor" stop-opacity="0" />
    </linearGradient>
    <radialGradient id="screenHeaderCore" cx="0" cy="0" r="1" gradientUnits="userSpaceOnUse" gradientTransform="translate(960 37) rotate(90) scale(54 290)">
      <stop offset="0" stop-color="currentColor" stop-opacity="0.42" />
      <stop offset="0.52" stop-color="currentColor" stop-opacity="0.14" />
      <stop offset="1" stop-color="currentColor" stop-opacity="0" />
    </radialGradient>
    <filter id="screenHeaderSoftGlow" x="120" y="-26" width="1680" height="162" color-interpolation-filters="sRGB">
      <feGaussianBlur stdDeviation="5" result="blur" />
      <feMerge>
        <feMergeNode in="blur" />
        <feMergeNode in="SourceGraphic" />
      </feMerge>
    </filter>
    <filter id="screenHeaderTightGlow" x="300" y="-10" width="1320" height="132" color-interpolation-filters="sRGB">
      <feGaussianBlur stdDeviation="2.1" result="blur" />
      <feMerge>
        <feMergeNode in="blur" />
        <feMergeNode in="SourceGraphic" />
      </feMerge>
    </filter>
  </defs>

  <path d="M0 0H1920V2H0V0Z" fill="currentColor" fill-opacity="0.13" />
  <path d="M170 8H665L714 24H831L868 12H1052L1089 24H1206L1255 8H1750" stroke="url(#screenHeaderRail)" stroke-width="3" stroke-linecap="round" filter="url(#screenHeaderSoftGlow)" />
  <path d="M682 8L724 30H821L858 18H1062L1099 30H1196L1238 8H1750V0H170V8H682Z" fill="url(#screenHeaderPlate)" />
  <path d="M632 27L753 54H1167L1288 27H1216L1169 41H751L704 27H632Z" fill="url(#screenHeaderCore)" />

  <path d="M458 31L587 57L830 78H1090L1333 57L1462 31H1290L1194 62H1087L1050 75H870L833 62H726L630 31H458Z" fill="url(#screenHeaderWing)" />
  <path d="M527 68L724 92H1196L1393 68" stroke="url(#screenHeaderScan)" stroke-width="4" stroke-linecap="round" filter="url(#screenHeaderSoftGlow)" />
  <path d="M747 55H855M1065 55H1173" stroke="currentColor" stroke-width="3" stroke-linecap="round" stroke-opacity="0.9" filter="url(#screenHeaderTightGlow)" />
  <path d="M869 74H930M990 74H1051" stroke="currentColor" stroke-width="2" stroke-linecap="round" stroke-opacity="0.55" />
  <path d="M704 27L747 55M1216 27L1173 55" stroke="currentColor" stroke-width="2.4" stroke-linecap="round" stroke-opacity="0.72" />
  <path d="M630 31L724 62M1290 31L1196 62" stroke="currentColor" stroke-width="2" stroke-linecap="round" stroke-opacity="0.45" />

  <path d="M348 20H374L389 27H363L348 20ZM398 20H424L439 27H413L398 20ZM448 20H474L489 27H463L448 20ZM498 20H524L539 27H513L498 20Z" fill="currentColor" fill-opacity="0.62" filter="url(#screenHeaderTightGlow)" />
  <path d="M1381 27L1396 20H1422L1407 27H1381ZM1431 27L1446 20H1472L1457 27H1431ZM1481 27L1496 20H1522L1507 27H1481ZM1531 27L1546 20H1572L1557 27H1531Z" fill="currentColor" fill-opacity="0.62" filter="url(#screenHeaderTightGlow)" />

  <path d="M575 70H636M1284 70H1345" stroke="currentColor" stroke-width="3" stroke-linecap="round" stroke-dasharray="10 15" stroke-opacity="0.48" />
  <path d="M670 45L657 52L670 59M697 45L684 52L697 59M1250 45L1263 52L1250 59M1223 45L1236 52L1223 59" stroke="currentColor" stroke-width="2.7" stroke-linecap="round" stroke-linejoin="round" stroke-opacity="0.75" />
  <path d="M921 29H999" stroke="currentColor" stroke-width="2.5" stroke-linecap="round" stroke-opacity="0.9" filter="url(#screenHeaderTightGlow)" />
  <path d="M899 37H1021" stroke="currentColor" stroke-width="1.6" stroke-linecap="round" stroke-opacity="0.4" />
  <path d="M954 21H966V33H954V21Z" fill="currentColor" fill-opacity="0.84" filter="url(#screenHeaderTightGlow)" />
</svg>
